<svg xmlns="http://www.w3.org/2000/svg" width="24" height="24" fill="white" viewBox="0 0 24 24">
  <path d="M12 2C6.48 2 2 6.48 2 12s4.48 10 10 10 10-4.48 10-10S17.52 2 12 2zm4.64 6.8c-.15 1.58-.8 5.42-1.13 7.19-.14.75-.42 1-.68 1.03-.58.05-1.02-.38-1.58-.75-.88-.58-1.38-.94-2.23-1.5-.99-.65-.35-1.01.22-1.59.15-.15 2.71-2.48 2.76-2.69a.2.2 0 00-.05-.18c-.06-.05-.16-.03-.23-.02-.1.02-1.62 1.03-4.58 3.03-.43.3-.82.44-1.17.43-.39-.01-1.13-.22-1.68-.4-.68-.23-1.22-.35-1.17-.74.02-.2.3-.4.81-.6 3.15-1.37 5.26-2.27 6.33-2.7 3.02-1.24 3.65-1.45 4.06-1.45.1 0 .3.02.42.16.11.13.1.3.08.42z" />
</svg> 